<?xml version="1.0" encoding="UTF-8" standalone="no"?>
<!-- Created with Inkscape (http://www.inkscape.org/) -->
<svg
   xmlns:svg="http://www.w3.org/2000/svg"
   xmlns="http://www.w3.org/2000/svg"
   version="1.0"
   width="74.279999"
   height="17.82"
   id="svg1901">
  <defs
     id="defs1903" />
  <g
     id="layer1"
     style="opacity:1">
    <path
       d="M 0.99874939,3.0587498 C 0.99874939,1.9199998 1.9224994,0.99624985 3.0612494,0.99624985 L 71.218749,0.99624985 C 72.357499,0.99624985 73.281249,1.9199998 73.281249,3.0587498 L 73.281249,14.7625 C 73.281249,15.90125 72.357499,16.82375 71.218749,16.82375 L 3.0612494,16.82375 C 1.9224994,16.82375 0.99874939,15.90125 0.99874939,14.7625"
       id="path3409"
       style="fill:#09b0de;fill-opacity:1;fill-rule:nonzero;stroke:none" />
    <path
       d="M 7.1924994,7.7674998 L 15.819999,7.7674998 L 15.819999,9.5312498 L 7.1924994,9.5312498 L 7.1924994,14.96375 L 5.2362494,14.96375 L 5.2537494,8.6062498 C 5.2537494,6.9174998 5.3874994,5.6949998 5.6549994,4.9387498 C 5.9574994,4.0762498 6.5337494,3.4774998 7.3837494,3.1399998 C 8.1874994,2.8137498 9.4624994,2.6499998 11.209999,2.6499998 L 13.479999,2.6499998 C 15.681249,2.6499998 17.194999,2.9187498 18.021249,3.4537498 C 18.813749,3.9662498 19.289999,4.9387498 19.453749,6.3712498 L 17.479999,6.3712498 C 17.293749,5.5549998 16.873749,5.0312498 16.222499,4.7987498 C 15.756249,4.6349998 14.813749,4.5537498 13.392499,4.5537498 L 11.331249,4.5537498 C 9.6774994,4.5537498 8.6187494,4.7112498 8.1524994,5.0262498 C 7.5587494,5.4099998 7.2387494,6.3237498 7.1924994,7.7674998"
       id="path3411"
       style="fill:#ffffff;fill-opacity:1;fill-rule:nonzero;stroke:none" />
    <path
       d="M 31.522499,11.36625 C 31.522499,12.71625 31.172499,13.67125 30.473749,14.23 C 29.857499,14.71875 28.861249,14.96375 27.487499,14.96375 L 21.357499,14.96375 C 18.667499,14.96375 17.328749,13.805 17.339999,11.48875 L 19.453749,11.48875 C 19.453749,12.56 20.209999,13.095 21.723749,13.095 L 27.016249,13.095 C 27.749999,13.095 28.297499,12.99625 28.657499,12.79875 C 29.134999,12.53 29.373749,12.0525 29.373749,11.36625 C 29.373749,10.58625 28.959999,10.05625 28.133749,9.7762498 C 27.633749,9.6024998 26.893749,9.5149998 25.916249,9.5149998 C 25.519999,9.5149998 24.931249,9.5312498 24.151249,9.5662498 C 23.371249,9.5899998 22.783749,9.6024998 22.387499,9.6024998 C 20.838749,9.6024998 19.674999,9.4099998 18.893749,9.0249998 C 17.811249,8.4787498 17.269999,7.5112498 17.269999,6.1262498 C 17.269999,4.8687498 17.642499,3.9662498 18.387499,3.4187498 C 19.028749,2.9537498 20.006249,2.7199998 21.322499,2.7199998 L 27.156249,2.7199998 C 30.032499,2.7199998 31.469999,3.8724998 31.469999,6.1787498 L 29.268749,6.1787498 C 29.268749,5.1074998 28.499999,4.5712498 26.963749,4.5712498 L 21.461249,4.5712498 C 20.192499,4.5712498 19.557499,5.1012498 19.557499,6.1612498 C 19.557499,7.2674998 20.716249,7.8199998 23.033749,7.8199998 C 23.394999,7.8199998 23.929999,7.8024998 24.641249,7.7674998 C 25.362499,7.7212498 25.903749,7.6987498 26.264999,7.6987498 C 27.848749,7.6987498 29.047499,7.9137498 29.862499,8.3437498 C 30.968749,8.9262498 31.522499,9.9337498 31.522499,11.36625"
       id="path3413"
       style="fill:#ffffff;fill-opacity:1;fill-rule:nonzero;stroke:none" />
    <path
       d="M 42.769999,4.5887498 L 37.251249,4.5887498 L 37.251249,14.96375 L 35.172499,14.96375 L 35.172499,4.5887498 L 29.669999,4.5887498 L 29.669999,2.7199998 L 42.769999,2.7199998"
       id="path3415"
       style="fill:#ffffff;fill-opacity:1;fill-rule:nonzero;stroke:none" />
    <path
       d="M 55.624999,10.86 C 55.624999,12.42 55.217499,13.515 54.402499,14.1425 C 53.681249,14.7025 52.522499,14.98125 50.926249,14.98125 L 47.048749,14.98125 C 43.941249,14.98125 42.392499,13.8175 42.403749,11.48875 L 44.482499,11.48875 C 44.482499,12.19875 44.808749,12.67 45.459999,12.9025 C 45.843749,13.0425 46.473749,13.1125 47.346249,13.1125 L 50.752499,13.1125 C 51.729999,13.1125 52.428749,12.9375 52.848749,12.58875 C 53.301249,12.1925 53.528749,11.51125 53.528749,10.545 C 53.528749,9.8237498 53.313749,9.2699998 52.883749,8.8862498 C 52.452499,8.5012498 51.863749,8.3087498 51.118749,8.3087498 L 46.734999,8.3087498 C 45.617499,8.3087498 44.942499,8.5424998 44.708749,9.0074998 L 42.612499,9.0074998 L 42.612499,2.7199998 L 55.153749,2.7199998 L 55.153749,4.4149998 L 44.691249,4.4149998 L 44.691249,7.0174998 C 45.006249,6.6324998 45.733749,6.4399998 46.874999,6.4399998 L 50.874999,6.4399998 C 52.562499,6.4399998 53.762499,6.7487498 54.472499,7.3662498 C 55.241249,8.0299998 55.624999,9.1937498 55.624999,10.86"
       id="path3417"
       style="fill:#ffffff;fill-opacity:1;fill-rule:nonzero;stroke:none" />
    <path
       d="M 29.829999,3.6412498 L 26.746249,3.6412498 L 26.746249,2.7212623 L 29.829999,2.7212623 L 29.829999,3.6412498 z"
       id="path3419"
       style="fill:#ffffff;fill-opacity:1;fill-rule:nonzero;stroke:none" />
    <path
       d="M 57.844999,5.3424998 C 57.844999,3.8737498 59.036249,2.6824998 60.506249,2.6824998 C 61.974999,2.6824998 63.166249,3.8737498 63.166249,5.3424998 C 63.166249,6.8112498 61.974999,8.0024998 60.506249,8.0024998 C 59.036249,8.0024998 57.844999,6.8112498 57.844999,5.3424998"
       id="path3421"
       style="fill:#ffffff;fill-opacity:1;fill-rule:nonzero;stroke:none" />
    <path
       d="M 61.528749,9.1024998 C 61.528749,7.6337498 62.719999,6.4424998 64.188749,6.4424998 C 65.658749,6.4424998 66.849999,7.6337498 66.849999,9.1024998 C 66.849999,10.57125 65.658749,11.7625 64.188749,11.7625 C 62.719999,11.7625 61.528749,10.57125 61.528749,9.1024998"
       id="path3423"
       style="fill:#ffffff;fill-opacity:1;fill-rule:nonzero;stroke:none" />
    <path
       d="M 65.544999,5.3124998 C 65.544999,4.0199998 66.592499,2.9724998 67.883749,2.9724998 C 69.174999,2.9724998 70.222499,4.0199998 70.222499,5.3124998 C 70.222499,6.6037498 69.174999,7.6512498 67.883749,7.6512498 C 66.592499,7.6512498 65.544999,6.6037498 65.544999,5.3124998"
       id="path3425"
       style="fill:#ffffff;fill-opacity:1;fill-rule:nonzero;stroke:none" />
    <path
       d="M 65.544999,5.3124998 C 65.544999,4.0199998 66.592499,2.9724998 67.883749,2.9724998 C 69.174999,2.9724998 70.222499,4.0199998 70.222499,5.3124998 C 70.222499,6.6037498 69.174999,7.6512498 67.883749,7.6512498 C 66.592499,7.6512498 65.544999,6.6037498 65.544999,5.3124998 z"
       id="path3427"
       style="fill:none;stroke:#ffffff;stroke-width:0.27000001;stroke-linecap:butt;stroke-linejoin:miter;stroke-miterlimit:3.86400008;stroke-dasharray:none;stroke-opacity:1" />
    <path
       d="M 58.414999,12.80625 C 58.414999,11.63625 59.362499,10.68875 60.532499,10.68875 C 61.701249,10.68875 62.649999,11.63625 62.649999,12.80625 C 62.649999,13.975 61.701249,14.92375 60.532499,14.92375 C 59.362499,14.92375 58.414999,13.975 58.414999,12.80625"
       id="path3429"
       style="fill:#ffffff;fill-opacity:1;fill-rule:nonzero;stroke:none" />
    <path
       d="M 58.414999,12.80625 C 58.414999,11.63625 59.362499,10.68875 60.532499,10.68875 C 61.701249,10.68875 62.649999,11.63625 62.649999,12.80625 C 62.649999,13.975 61.701249,14.92375 60.532499,14.92375 C 59.362499,14.92375 58.414999,13.975 58.414999,12.80625 z"
       id="path3431"
       style="fill:none;stroke:#ffffff;stroke-width:0.27000001;stroke-linecap:butt;stroke-linejoin:miter;stroke-miterlimit:3.86400008;stroke-dasharray:none;stroke-opacity:1" />
    <path
       d="M 65.979999,12.8375 C 65.979999,11.81375 66.809999,10.9825 67.834999,10.9825 C 68.858749,10.9825 69.688749,11.81375 69.688749,12.8375 C 69.688749,13.86125 68.858749,14.6925 67.834999,14.6925 C 66.809999,14.6925 65.979999,13.86125 65.979999,12.8375"
       id="path3433"
       style="fill:#ffffff;fill-opacity:1;fill-rule:nonzero;stroke:none" />
    <path
       d="M 65.979999,12.8375 C 65.979999,11.81375 66.809999,10.9825 67.834999,10.9825 C 68.858749,10.9825 69.688749,11.81375 69.688749,12.8375 C 69.688749,13.86125 68.858749,14.6925 67.834999,14.6925 C 66.809999,14.6925 65.979999,13.86125 65.979999,12.8375 z"
       id="path3435"
       style="fill:none;stroke:#ffffff;stroke-width:0.27000001;stroke-linecap:butt;stroke-linejoin:miter;stroke-miterlimit:3.86400008;stroke-dasharray:none;stroke-opacity:1" />
  </g>
</svg>
