<?xml version="1.0" encoding="UTF-8" standalone="no"?>
<!-- Created with Inkscape (http://www.inkscape.org/) -->
<svg
   xmlns:svg="http://www.w3.org/2000/svg"
   xmlns="http://www.w3.org/2000/svg"
   version="1.0"
   width="114.07812"
   height="41.179111"
   id="svg4244">
  <defs
     id="defs4246">
    <clipPath
       id="clipPath3458">
      <path
         d="M 0,0 L 419.528,0 L 419.528,595.276 L 0,595.276 L 0,0 z"
         id="path3460" />
    </clipPath>
  </defs>
  <g
     transform="translate(-3.86546,-5.764235)"
     id="layer1">
    <g
       transform="matrix(1.25,0,0,-1.25,-122.28174,571.27076)"
       id="g3454"
       style="fill:#000000">
      <g
         clip-path="url(#clipPath3458)"
         id="g3456"
         style="fill:#000000">
        <g
           transform="translate(191.96326,421.40622)"
           id="g3474"
           style="fill:#000000">
          <path
             d="M 0,0 C 0.141,-0.201 0.217,-0.445 0.217,-0.709 C 0.217,-1.39 -0.335,-1.944 -1.017,-1.944 L -11.696,-1.944 C -12.297,-1.944 -12.822,-1.565 -13.14,-1.099 C -13.14,-1.099 -20.353,11.872 -20.478,12.099 C -20.632,12.38 -21.023,12.276 -21.023,11.974 C -21.023,11.974 -21.02,-0.447 -21.023,-0.488 C -21.023,-1.259 -21.743,-1.944 -22.567,-1.944 L -31.04,-1.944 C -31.641,-1.944 -32.211,-1.642 -32.508,-1.134 C -32.508,-1.134 -39.793,12.19 -39.833,12.263 C -39.975,12.528 -40.351,12.418 -40.351,12.12 L -40.351,-0.405 C -40.351,-1.254 -41.04,-1.944 -41.889,-1.944 L -49.884,-1.944 C -50.735,-1.944 -51.424,-1.254 -51.424,-0.405 L -51.424,29.465 C -51.424,30.314 -50.735,30.999 -49.884,30.999 L -39.69,30.999 C -39.145,30.999 -38.628,30.742 -38.16,30.05 C -38.16,30.05 -31.293,17.18 -31.219,17.047 C -31.073,16.789 -30.674,16.867 -30.674,17.177 L -30.674,29.465 C -30.674,30.314 -29.985,30.999 -29.134,30.999 L -19.354,30.999 C -18.53,30.999 -18.13,30.645 -17.736,30.097 C -17.04,29.132 0,0 0,0"
             id="path3476"
             style="fill:#000000;fill-opacity:1;fill-rule:nonzero;stroke:none" />
        </g>
        <g
           transform="translate(102.45676,419.46193)"
           id="g3478"
           style="fill:#000000">
          <path
             d="M 0,0 C -0.85,0 -1.539,0.691 -1.539,1.539 L -1.539,8.432 C -1.539,9.283 -0.85,9.971 0,9.971 L 5.208,9.971 C 6.997,9.971 8.47,10.827 8.47,13.951 L 8.47,31.409 C 8.47,32.258 9.16,32.943 10.01,32.943 L 18.619,32.943 C 19.468,32.943 20.158,32.258 20.158,31.409 L 20.158,13.701 C 20.158,5.453 16.178,0 7.466,0 L 0,0 z"
             id="path3480"
             style="fill:#000000;fill-opacity:1;fill-rule:nonzero;stroke:none" />
        </g>
        <g
           transform="translate(127.11455,419.46193)"
           id="g3482"
           style="fill:#000000">
          <path
             d="M 0,0 C -0.85,0 -1.54,0.691 -1.54,1.539 L -1.54,31.409 C -1.54,32.258 -0.85,32.943 0,32.943 L 8.696,32.943 C 9.546,32.943 10.235,32.258 10.235,31.409 L 10.235,1.539 C 10.235,0.691 9.546,0 8.696,0 L 0,0 z"
             id="path3484"
             style="fill:#000000;fill-opacity:1;fill-rule:nonzero;stroke:none" />
        </g>
      </g>
    </g>
  </g>
</svg>
