<?xml version="1.0" encoding="UTF-8" standalone="no"?>
<!-- Created with Inkscape (http://www.inkscape.org/) -->
<svg
   xmlns:dc="http://purl.org/dc/elements/1.1/"
   xmlns:cc="http://creativecommons.org/ns#"
   xmlns:rdf="http://www.w3.org/1999/02/22-rdf-syntax-ns#"
   xmlns:svg="http://www.w3.org/2000/svg"
   xmlns="http://www.w3.org/2000/svg"
   xmlns:sodipodi="http://sodipodi.sourceforge.net/DTD/sodipodi-0.dtd"
   xmlns:inkscape="http://www.inkscape.org/namespaces/inkscape"
   width="114.22886"
   height="63.590084"
   id="svg4142"
   sodipodi:version="0.32"
   inkscape:version="0.46"
   version="1.0"
   sodipodi:docname="Livtv-n_logo.svg"
   inkscape:output_extension="org.inkscape.output.svg.inkscape">
  <defs
     id="defs4144">
    <clipPath
       clipPathUnits="userSpaceOnUse"
       id="clipPath3516">
      <path
         d="M 0,0 L 419.528,0 L 419.528,595.276 L 0,595.276 L 0,0 z"
         id="path3518" />
    </clipPath>
    <inkscape:perspective
       sodipodi:type="inkscape:persp3d"
       inkscape:vp_x="0 : 526.18109 : 1"
       inkscape:vp_y="0 : 1000 : 0"
       inkscape:vp_z="744.09448 : 526.18109 : 1"
       inkscape:persp3d-origin="372.04724 : 350.78739 : 1"
       id="perspective4150" />
  </defs>
  <sodipodi:namedview
     id="base"
     pagecolor="#ffffff"
     bordercolor="#666666"
     borderopacity="1.0"
     gridtolerance="10000"
     guidetolerance="10"
     objecttolerance="10"
     inkscape:pageopacity="0.0"
     inkscape:pageshadow="2"
     inkscape:zoom="3.959798"
     inkscape:cx="66.17875"
     inkscape:cy="26.774635"
     inkscape:document-units="px"
     inkscape:current-layer="g3514"
     showgrid="false"
     inkscape:window-width="1278"
     inkscape:window-height="798"
     inkscape:window-x="0"
     inkscape:window-y="0" />
  <metadata
     id="metadata4147">
    <rdf:RDF>
      <cc:Work
         rdf:about="">
        <dc:format>image/svg+xml</dc:format>
        <dc:type
           rdf:resource="http://purl.org/dc/dcmitype/StillImage" />
      </cc:Work>
    </rdf:RDF>
  </metadata>
  <g
     inkscape:label="Layer 1"
     inkscape:groupmode="layer"
     id="layer1"
     transform="translate(-157.56258,-243.42429)">
    <g
       transform="matrix(1.25,0,0,-1.25,125.96538,934.76737)"
       id="g3512">
      <g
         id="g3514"
         clip-path="url(#clipPath3516)">
        <g
           id="g3568"
           transform="translate(74.281403,545.7334)">
          <path
             d="M 0,0 C -0.298,-4.035 -3.974,-7.293 -8.213,-7.275 C -12.451,-7.255 -15.648,-3.969 -15.351,0.066 C -15.055,4.102 -11.378,7.358 -7.14,7.341 C -2.899,7.322 0.295,4.035 0,0"
             style="fill:#6ec72d;fill-opacity:1;fill-rule:nonzero;stroke:none"
             id="path3570" />
        </g>
        <g
           id="g3572"
           transform="translate(50.452194,551.1944)">
          <path
             d="M 0,0 L -10.012,-39.763 C -10.012,-39.763 -11.063,-43.066 -9.502,-43.335 C -7.942,-43.606 -6.426,-41.066 -4.91,-37.363 C -2.983,-32.653 -1.189,-22.986 2.503,-19.624 C 6.206,-16.252 10.309,-14.809 14.269,-15.783 C 19.767,-17.136 20.646,-20.735 20.916,-22.656 C 21.088,-23.878 20.788,-26.991 19.359,-32.012 C 17.93,-37.032 17.15,-40.154 17.15,-40.154 C 17.15,-40.154 16.339,-43.035 17.93,-43.125 C 19.521,-43.215 20.989,-40.476 22.072,-37.873 C 24.269,-32.592 25.77,-21.968 31.361,-18.199 C 35.373,-15.495 39.6,-14.522 43.562,-16.488 C 45.474,-17.437 47.839,-19.464 48.199,-22.836 C 48.634,-26.918 46.713,-31.57 45.767,-34.496 C 44.822,-37.423 43.922,-40.664 44.553,-43.14 C 44.897,-44.494 46.838,-48.867 53.511,-44.311 C 60.94,-39.239 63.137,-30.101 63.506,-28.058 C 63.506,-28.058 63.686,-27.293 63.371,-27.068 C 63.055,-26.843 62.83,-26.978 62.425,-27.248 C 62.02,-27.518 57.788,-30.669 53.601,-27.248 C 53.601,-27.248 50.675,-24.592 52.161,-20.18 C 53.646,-15.768 57.248,-15.498 58.553,-15.543 C 59.859,-15.588 64.061,-16.263 65.532,-20.72 C 66.836,-24.673 66.522,-31.21 62.2,-38.188 C 58.643,-43.931 52.94,-48.834 43.171,-48.978 C 32.997,-49.128 29.879,-43.487 29.515,-38.503 C 29.215,-34.392 32.576,-25.222 32.576,-25.222 C 32.576,-25.222 34.363,-21.58 32.276,-21.218 C 30.191,-20.855 28.043,-23.992 26.724,-28.058 C 24.923,-33.611 23.506,-38.966 22.402,-41.384 C 21.141,-44.146 17.796,-48.948 11.387,-48.948 C 4.949,-48.948 2.643,-44.08 2.188,-40.259 C 1.648,-35.727 4.844,-26.978 5.294,-25.492 C 5.744,-24.007 6.902,-21.67 5.062,-21.218 C 3.224,-20.765 0.976,-23.767 -0.243,-27.473 C -1.729,-31.99 -2.629,-35.861 -4.205,-39.944 C -4.852,-41.62 -7.672,-48.992 -15.775,-48.992 C -23.879,-48.992 -26.4,-41.474 -24.645,-34.676 C -22.984,-28.248 -15.9,-1.701 -15.9,-1.701 L -21.887,-1.701 L -21.456,0 L 0,0 z"
             style="fill:#0fab4b;fill-opacity:1;fill-rule:nonzero;stroke:none"
             id="path3574" />
        </g>
      </g>
    </g>
  </g>
</svg>
