<?xml version="1.0" encoding="UTF-8" ?>
<!DOCTYPE svg PUBLIC "-//W3C//DTD SVG 1.1//EN" "http://www.w3.org/Graphics/SVG/1.1/DTD/svg11.dtd">
<svg width="85pt" height="85pt" viewBox="0 0 85 85" version="1.1" xmlns="http://www.w3.org/2000/svg">
<g id="#0079accf">
<path fill="#0079ac" opacity="0.81" d=" M 28.56 2.44 C 45.90 2.16 63.25 2.40 80.59 2.29 C 81.33 2.99 82.08 3.69 82.82 4.39 C 83.00 29.71 83.00 55.04 82.98 80.36 C 82.12 80.80 81.26 81.25 80.41 81.70 C 55.58 81.71 30.76 81.70 5.93 81.70 C 4.12 82.04 3.11 80.34 2.00 79.26 C 2.11 62.83 1.94 46.39 2.07 29.95 C 2.16 26.39 3.34 22.99 4.28 19.58 C 7.47 11.73 14.46 5.73 22.61 3.52 C 24.58 3.03 26.78 3.63 28.56 2.44 M 29.36 52.91 C 35.65 53.04 41.94 52.77 48.22 53.02 C 49.40 56.06 48.35 59.97 48.69 63.32 C 51.16 63.33 53.63 63.32 56.10 63.32 C 56.09 55.07 56.10 46.82 56.10 38.58 C 53.63 38.56 51.15 38.56 48.67 38.57 C 48.69 41.21 48.69 43.85 48.66 46.48 C 45.47 46.46 42.27 46.44 39.08 46.43 C 42.06 37.94 44.90 29.41 47.90 20.93 C 45.46 20.87 43.02 20.84 40.58 20.81 C 36.60 31.42 33.21 42.25 29.36 52.91 Z" />
</g>
</svg>
