<?xml version="1.0" encoding="UTF-8" standalone="no"?>
<!-- Created with Inkscape (http://www.inkscape.org/) -->
<svg
   xmlns:svg="http://www.w3.org/2000/svg"
   xmlns="http://www.w3.org/2000/svg"
   version="1.0"
   width="800"
   height="329.59698"
   viewBox="0 0 800 329.597"
   id="Layer_1"
   xml:space="preserve"><defs
   id="defs22" />
<polyline
   fill="#231F20"
   points="0,0 800,0 800,240.258 134.793,240.258 0.458,329.597 47.398,240.813 0,240.813 0,0 "
   id="polyline3"
   style="fill:#231f20" />
<path
   d="M 107.328,87.591 L 130.398,87.591 L 130.398,167.502 L 107.328,167.502 L 107.328,87.591 z M 83.604,66.596 L 154.235,66.596 L 154.235,83.474 L 83.604,83.474 L 83.604,66.596 z "
   style="fill:white;fill-rule:evenodd"
   id="path5" />
<path
   d="M 212.973,106.642 L 212.973,66.596 L 236.043,66.596 L 236.043,167.519 L 212.973,167.519 L 212.973,123.487 L 194.217,123.487 L 194.217,106.642 L 212.973,106.642 M 167.241,66.596 L 190.033,66.596 L 190.033,167.519 L 167.241,167.519 L 167.241,66.596 z "
   style="fill:white;fill-rule:evenodd"
   id="path7" />
<path
   d="M 251.679,66.596 L 274.618,66.596 L 274.618,167.519 L 251.679,167.519 L 251.679,66.596 z M 278.131,150.069 L 307.949,150.069 L 307.949,167.518 L 278.131,167.518 L 278.131,150.069 z M 278.131,66.596 L 307.949,66.596 L 307.949,83.474 L 278.131,83.474 L 278.131,66.596 z M 278.131,106.494 L 306.266,106.494 L 306.266,123.355 L 278.131,123.355 L 278.131,106.494 z "
   style="fill:white;fill-rule:evenodd"
   id="path9" />
<path
   d="M 384.544,66.596 L 408.039,167.519 L 389.217,167.519 L 361.801,66.596 L 384.544,66.596 M 417.024,66.596 L 439.833,66.596 L 412.695,167.519 L 403.757,130.725 L 417.024,66.596 z "
   style="fill:white;fill-rule:evenodd"
   id="path11" />
<path
   d="M 495.776,91.659 C 495.776,84.96 492.46,81.301 485.76,80.761 L 485.76,64.309 C 508.144,64.455 519.368,74.03 519.417,93.032 L 519.417,139.27 C 519.368,158.925 508.144,169.006 485.76,169.529 L 485.76,153.37 C 492.459,152.848 495.776,149.221 495.776,142.456 L 495.776,91.659 M 448.673,92.574 C 448.574,74.47 459.587,65.059 481.693,64.308 L 481.693,80.76 C 475.24,81.414 472.005,85.025 472.005,91.61 L 472.005,142.439 C 472.005,149.121 475.24,152.749 481.693,153.369 L 481.693,169.528 C 459.767,168.875 448.755,158.631 448.673,138.828 L 448.673,92.574 z "
   style="fill:white;fill-rule:evenodd"
   id="path13" />
<line
   fill="none"
   stroke="#FFFFFF"
   stroke-width="23.4897"
   stroke-miterlimit="3.864"
   x1="546.29498"
   y1="167.519"
   x2="546.29498"
   y2="66.596001"
   id="line15"
   style="fill:none;stroke:white;stroke-width:23.48970032;stroke-miterlimit:3.86400008" />
<path
   d="M 573.875,91.97 C 573.81,74.602 584.609,65.436 606.225,64.455 L 606.225,81.006 C 600.229,81.79 597.223,85.14 597.223,91.055 L 597.223,143.55 C 597.223,149.22 600.229,152.471 606.225,153.255 L 606.225,169.528 C 584.577,168.678 573.777,158.842 573.875,139.988 L 573.875,91.97 M 610.832,153.32 C 617.515,152.814 620.864,149.546 620.864,143.549 L 620.864,129.727 L 644.49,129.727 L 644.49,140.413 C 644.457,159.301 633.232,169.006 610.832,169.528 L 610.832,153.32 z M 610.832,64.309 C 633.412,64.455 644.637,73.785 644.49,92.313 L 644.49,101.741 L 620.864,101.741 L 620.864,90.973 C 620.864,84.699 617.514,81.301 610.832,80.794 L 610.832,64.309 z "
   style="fill:white;fill-rule:evenodd"
   id="path17" />
<path
   d="M 659.179,66.596 L 682.117,66.596 L 682.117,167.519 L 659.179,167.519 L 659.179,66.596 z M 685.631,150.069 L 715.448,150.069 L 715.448,167.518 L 685.631,167.518 L 685.631,150.069 z M 685.631,66.596 L 715.448,66.596 L 715.448,83.474 L 685.631,83.474 L 685.631,66.596 z M 685.631,106.494 L 713.749,106.494 L 713.749,123.355 L 685.631,123.355 L 685.631,106.494 z "
   style="fill:white;fill-rule:evenodd"
   id="path19" />
</svg>