<?xml version="1.0" encoding="UTF-8" standalone="no"?>
<!-- Created with Inkscape (http://www.inkscape.org/) -->
<svg
   xmlns:svg="http://www.w3.org/2000/svg"
   xmlns="http://www.w3.org/2000/svg"
   version="1.0"
   width="43.5"
   height="43.5"
   id="svg1901">
  <defs
     id="defs1903" />
  <g
     id="layer1"
     style="opacity:1">
    <path
       d="M 42.50375,42.50375 L 0.99625,42.50375 L 0.99625,0.99625 L 42.50375,0.99625 L 42.50375,42.50375 z"
       id="path3397"
       style="fill:#f2511b;fill-opacity:1;fill-rule:nonzero;stroke:none" />
    <path
       d="M 12.57125,15.60375 C 12.57125,9.5675 15.32375,5.2225 22.17875,5.2225 C 27.39375,5.2225 31.30375,7.975 31.30375,13.0925 C 31.30375,18.25875 26.38,21.88 21.35875,25.30875 C 16.43375,28.785 10.93,32.165 11.02625,37.66875 L 33.13875,37.66875 M 13.7225,36.29875 C 14.20625,32.05 19.07875,28.8625 24.14875,25.38625 C 29.12125,21.91 34.0875,18.1775 33.60125,12.66375"
       id="path3399"
       style="fill:none;stroke:#ffffff;stroke-width:0.73000002;stroke-linecap:butt;stroke-linejoin:miter;stroke-miterlimit:3.86400008;stroke-dasharray:none;stroke-opacity:1" />
    <path
       d="M 36.1075,12.825 L 32.565,12.825 L 32.565,11.52 L 36.1075,11.52 L 36.1075,12.825 z"
       id="path3401"
       style="fill:#f2511b;fill-opacity:1;fill-rule:nonzero;stroke:none" />
    <path
       d="M 36.1075,12.825 L 32.565,12.825 L 32.565,11.52125 L 36.1075,11.52125 L 36.1075,12.825 z"
       id="path3403"
       style="fill:none;stroke:#f2511b;stroke-width:0.27000001;stroke-linecap:butt;stroke-linejoin:miter;stroke-miterlimit:3.86400008;stroke-dasharray:none;stroke-opacity:1" />
    <path
       d="M 15.7875,37.11625 L 12.245,37.11625 L 12.245,35.8125 L 15.7875,35.8125 L 15.7875,37.11625 z"
       id="path3405"
       style="fill:#f2511b;fill-opacity:1;fill-rule:nonzero;stroke:none" />
    <path
       d="M 15.7875,37.11625 L 12.245,37.11625 L 12.245,35.81125 L 15.7875,35.81125 L 15.7875,37.11625 z"
       id="path3407"
       style="fill:none;stroke:#f2511b;stroke-width:0.27000001;stroke-linecap:butt;stroke-linejoin:miter;stroke-miterlimit:3.86400008;stroke-dasharray:none;stroke-opacity:1" />
  </g>
</svg>
