<?xml version="1.0" encoding="UTF-8" standalone="no"?>
<!-- Created with Inkscape (http://www.inkscape.org/) -->
<svg
   xmlns:svg="http://www.w3.org/2000/svg"
   xmlns="http://www.w3.org/2000/svg"
   version="1.0"
   width="67.519997"
   height="22.58"
   id="svg1901">
  <defs
     id="defs1903">
    <clipPath
       id="clipPath3443">
      <path
         d="M 30.875,343.611 L 83.291,343.611 L 83.291,360.079 L 30.875,360.079 L 30.875,343.611 z"
         id="path3445" />
    </clipPath>
  </defs>
  <g
     id="layer1"
     style="opacity:1">
    <path
       d="M 53.063748,20.26125 C 50.536248,20.26125 48.479998,18.205 48.479998,15.6775 C 48.479998,13.15 50.536248,11.09375 53.063748,11.09375 C 55.591248,11.09375 57.647498,13.1575 57.647498,15.6925 C 57.639998,18.21125 55.583748,20.26125 53.063748,20.26125 M 22.291248,15.02 C 22.611248,12.8025 24.523748,11.09375 26.826248,11.09375 C 29.157498,11.09375 31.129998,12.8075 31.383748,15.02 L 22.291248,15.02 z M 11.778748,15.02 C 12.098748,12.8025 14.011248,11.09375 16.313748,11.09375 C 18.643748,11.09375 20.617498,12.8075 20.872498,15.02 L 11.778748,15.02 z M 58.961248,15.54125 C 58.887498,12.35 56.271248,9.7775 53.063748,9.7775 C 50.962498,9.7775 49.114998,10.8825 48.068748,12.54125 C 47.361248,10.91625 45.741248,9.7775 43.858748,9.7775 C 42.242498,9.7775 40.757498,10.62375 39.927498,12.00125 C 39.096248,10.62375 37.612498,9.7775 35.994998,9.7775 C 34.126248,9.7775 32.514998,10.90125 31.799998,12.5075 C 31.577498,12.13875 31.316248,11.79625 31.016248,11.48625 C 29.938748,10.3675 28.489998,9.7775 26.826248,9.7775 C 24.531248,9.7775 22.538748,11.09625 21.563748,13.01625 C 21.291248,12.45125 20.937498,11.935 20.503748,11.48625 C 19.473748,10.4175 18.102498,9.83125 16.529998,9.7825 L 16.529998,9.7775 L 0.99999832,9.7775 L 0.99999832,11.09375 L 5.7187483,11.09375 L 5.7187483,21.57875 L 7.0349983,21.57875 L 7.0349983,11.09375 L 12.603748,11.09375 C 11.268748,12.17625 10.413748,13.82875 10.412498,15.6775 C 10.411248,18.93125 13.057498,21.58 16.311248,21.5825 L 16.446248,21.5825 L 16.446248,21.4475 L 16.447498,20.4 L 16.447498,20.265 L 16.312498,20.265 C 14.008748,20.26375 12.097498,18.55375 11.777498,16.33625 L 20.962498,16.33625 C 21.291248,19.28125 23.792498,21.58 26.823748,21.5825 L 26.958748,21.5825 L 26.958748,21.4475 L 26.959998,20.4 L 26.959998,20.265 L 26.824998,20.265 C 24.521248,20.26375 22.609998,18.55375 22.289998,16.33625 L 31.404998,16.33625 L 31.404998,21.57875 L 32.722498,21.57875 L 32.722498,14.3675 C 32.722498,12.5625 34.189998,11.09375 35.994998,11.09375 C 37.799998,11.09375 39.268748,12.5625 39.268748,14.3675 L 39.268748,21.57875 L 40.586248,21.57875 L 40.586248,14.3675 C 40.586248,12.5625 42.053748,11.09375 43.858748,11.09375 C 45.663748,11.09375 47.132498,12.5625 47.132498,14.3675 L 47.132498,21.57875 L 48.448748,21.57875 L 48.448748,19.34875 C 49.531248,20.70625 51.197498,21.57875 53.063748,21.57875 C 54.912498,21.57875 56.564998,20.72125 57.647498,19.38375 L 57.647498,21.57875 L 58.964998,21.57875 L 58.964998,15.54125"
       id="path3437"
       style="fill:#f78d10;fill-opacity:1;fill-rule:nonzero;stroke:none" />
    <g
       transform="matrix(1.25,0,0,-1.25,-37.593752,451.09625)"
       id="g3439">
      <g
         clip-path="url(#clipPath3443)"
         id="g3441">
        <path
           d="M 78.849,360.078 L 78.863,359.978 C 78.822,359.915 78.782,359.699 78.782,359.687 L 78.782,359.621 L 78.799,359.601 C 78.841,359.667 78.888,359.56 78.94,359.648 C 78.975,359.562 79.015,359.479 79.015,359.397 C 79.015,359.368 78.933,359.228 78.933,359.199 C 78.933,359.075 79.098,359.042 79.161,359.042 C 79.19,359.042 79.355,359.204 79.462,359.298 C 79.7,359.222 79.809,358.908 79.947,358.803 C 79.934,358.787 79.924,358.786 79.924,358.756 C 79.924,358.694 80.053,358.692 80.058,358.692 C 80.123,358.692 80.244,358.82 80.361,358.82 C 80.39,358.82 80.5,358.774 80.53,358.774 C 80.559,358.774 80.693,358.844 80.722,358.844 C 80.751,358.844 80.879,358.786 80.879,358.756 C 80.879,358.727 80.833,358.646 80.833,358.617 C 80.833,358.587 80.844,358.56 80.855,358.52 C 80.794,358.509 80.688,358.501 80.634,358.442 C 80.644,358.434 80.658,358.424 80.658,358.395 C 80.658,358.282 80.583,358.38 80.518,358.28 C 80.672,358.154 80.559,357.973 80.759,357.946 C 80.77,357.938 80.863,357.807 80.943,357.807 C 80.99,357.807 81.066,357.865 81.066,357.883 C 81.066,357.884 81.194,357.893 81.231,357.958 C 81.246,357.958 81.275,357.97 81.275,357.941 C 81.275,357.912 81.308,357.935 81.33,357.927 C 81.398,357.904 81.462,357.761 81.525,357.714 C 81.545,357.735 81.578,357.772 81.607,357.772 C 81.612,357.772 81.629,357.787 81.648,357.73 C 81.567,357.663 81.473,357.657 81.473,357.568 C 81.473,357.539 81.462,357.551 81.462,357.521 C 81.462,357.382 81.147,357.539 81.147,357.207 C 81.147,357.042 81.45,357.016 81.45,356.869 C 81.45,356.84 81.438,356.828 81.438,356.799 C 81.438,356.793 81.264,356.634 81.264,356.578 C 81.264,356.541 81.328,356.505 81.363,356.502 C 81.71,356.473 81.604,356.56 81.724,356.56 C 81.753,356.56 81.799,356.525 81.829,356.525 C 81.858,356.525 82.046,356.583 82.075,356.583 L 82.188,356.583 C 82.284,356.583 82.289,356.502 82.365,356.502 C 82.394,356.502 82.434,356.553 82.469,356.553 C 82.551,356.553 82.644,356.548 82.735,356.557 C 82.745,356.57 82.755,356.589 82.757,356.617 C 82.784,356.618 82.826,356.572 82.855,356.572 L 82.969,356.572 C 82.978,356.572 83.028,356.599 83.037,356.618 L 83.202,356.618 C 83.231,356.618 83.291,356.56 83.291,356.531 C 83.291,356.528 83.223,356.409 83.195,356.363 C 83.19,356.362 82.968,356.479 82.936,356.479 C 82.921,356.479 82.873,356.492 82.893,356.457 C 82.862,356.48 82.802,356.502 82.772,356.502 C 82.713,356.502 82.531,356.444 82.433,356.444 L 82.274,356.444 C 82.252,356.422 82.217,356.387 82.192,356.362 L 82.005,356.362 C 81.976,356.362 81.904,356.397 81.875,356.397 C 81.846,356.397 81.737,356.351 81.67,356.33 C 81.671,356.31 81.695,356.269 81.724,356.269 C 81.753,356.269 81.765,356.304 81.794,356.304 C 81.827,356.304 81.853,356.285 81.947,356.292 C 81.961,356.279 81.969,356.269 81.986,356.265 C 81.946,356.229 81.872,356.199 81.817,356.199 C 81.807,356.199 81.739,356.228 81.733,356.234 L 81.504,356.234 C 81.456,356.234 81.24,356.198 81.24,356.182 C 81.24,356.152 81.182,356.152 81.182,356.123 C 81.182,356.094 81.227,356.022 81.287,355.949 C 81.264,355.908 81.194,355.841 81.194,355.784 L 81.194,355.647 C 81.194,355.504 81.621,355.44 81.633,355.441 C 81.657,355.404 81.671,355.33 81.705,355.322 C 81.692,355.275 81.591,355.197 81.561,355.197 C 81.532,355.197 81.17,355.349 81.141,355.349 C 81.112,355.349 81.085,355.325 81.053,355.316 C 81.065,355.262 81.077,355.244 81.077,355.215 C 81.077,355.215 81.08,355.005 80.959,355.001 C 80.981,354.892 80.909,354.736 80.972,354.607 C 80.91,354.556 80.86,354.592 80.818,354.475 L 80.766,354.475 C 80.707,354.523 80.623,354.579 80.594,354.579 C 80.439,354.579 80.483,354.381 80.483,354.352 C 80.483,354.269 80.368,354.23 80.308,354.23 C 80.279,354.23 80.18,354.277 80.151,354.277 C 80.122,354.277 80.098,354.242 80.069,354.242 C 80.04,354.242 80.032,354.277 80.01,354.288 C 79.999,354.288 79.98,354.267 79.97,354.258 C 79.981,354.238 79.994,354.213 79.993,354.186 C 79.955,354.168 79.923,354.211 79.889,354.155 C 79.899,354.147 79.912,354.125 79.912,354.096 C 79.912,354.067 79.9,354.032 79.9,354.003 C 79.9,353.924 79.836,353.892 79.79,353.892 C 79.665,353.892 79.52,354.032 79.464,354.032 C 79.434,354.032 79.434,354.02 79.405,354.02 C 79.265,354.02 79.143,353.878 79.143,353.723 C 79.143,353.694 79.166,353.659 79.166,353.63 C 79.166,353.601 79.143,353.578 79.143,353.548 C 79.143,353.486 79.225,353.442 79.225,353.362 C 79.225,353.333 79.248,353.298 79.248,353.269 C 79.248,353.24 79.201,353.181 79.201,353.152 C 79.201,352.945 79.423,352.806 79.423,352.686 C 79.423,352.657 79.399,352.669 79.399,352.64 C 79.399,352.61 79.434,352.605 79.434,352.579 L 79.394,352.541 C 79.205,352.679 79.195,353.008 78.992,353.15 C 78.992,353.176 79.015,353.193 79.015,353.222 C 79.015,353.251 78.97,353.288 78.941,353.325 C 78.955,353.447 78.898,353.538 78.898,353.618 C 78.898,353.726 78.727,353.857 78.66,353.857 C 78.63,353.857 78.625,353.846 78.606,353.847 C 78.607,353.828 78.595,353.795 78.606,353.755 C 78.4,353.713 78.477,353.612 78.31,353.612 C 78.1,353.612 78.258,353.904 77.995,353.904 C 77.881,353.904 77.861,353.803 77.861,353.758 C 77.861,353.665 77.826,353.725 77.826,353.58 C 77.788,353.566 77.733,353.543 77.704,353.543 C 77.596,353.543 77.5,353.688 77.5,353.781 C 77.5,353.901 77.605,353.829 77.605,353.933 C 77.605,354.028 77.302,354.16 77.218,354.161 C 77.126,353.974 77.036,353.701 76.839,353.602 C 76.836,353.677 76.801,353.799 76.801,353.828 C 76.801,353.92 76.929,354.067 76.929,354.108 C 76.929,354.129 76.871,354.226 76.871,354.23 C 76.871,354.259 76.884,354.263 76.894,354.271 C 76.887,354.275 76.797,354.347 76.772,354.347 C 76.657,354.347 76.631,354.137 76.481,354.137 C 76.408,354.137 76.382,354.201 76.382,354.247 C 76.382,354.277 76.393,354.323 76.393,354.352 C 76.393,354.367 76.463,354.454 76.463,354.504 C 76.463,354.533 76.452,354.545 76.452,354.574 C 76.452,354.619 75.858,354.872 75.858,355.075 C 75.858,355.104 75.822,355.127 75.822,355.156 C 75.822,355.185 75.849,355.22 75.869,355.227 L 75.846,355.25 L 75.869,355.274 C 75.847,355.317 75.764,355.372 75.764,355.401 C 75.764,355.43 75.73,355.456 75.713,355.482 C 75.767,355.672 75.528,355.782 75.45,355.9 L 75.45,356.092 C 75.478,356.103 75.799,356.202 75.799,356.345 C 75.799,356.391 75.742,356.459 75.683,356.483 L 75.718,356.52 C 75.662,356.593 75.566,356.581 75.5,356.581 C 75.479,356.601 75.438,356.731 75.438,356.752 C 75.438,356.782 75.475,356.815 75.511,356.848 C 75.596,356.859 75.683,356.864 75.743,356.897 L 75.776,356.929 C 75.765,356.96 75.741,357.003 75.741,357.032 C 75.741,357.061 75.764,357.061 75.764,357.09 C 75.764,357.176 75.571,357.173 75.523,357.307 C 75.52,357.334 75.521,357.374 75.533,357.386 C 75.624,357.455 75.592,357.492 75.7,357.492 C 75.729,357.492 75.784,357.469 75.815,357.457 C 75.848,357.491 75.893,357.536 75.916,357.579 C 75.88,357.613 75.834,357.788 75.834,357.813 C 75.834,357.842 75.848,357.84 75.86,357.852 C 75.89,357.867 75.997,357.915 75.997,357.999 C 75.997,358.024 75.957,358.096 75.904,358.126 C 75.917,358.143 75.916,358.145 75.916,358.174 C 75.916,358.203 75.854,358.289 75.826,358.351 C 75.8,358.41 75.867,358.511 75.788,358.569 C 75.801,358.586 75.813,358.597 75.84,358.622 C 75.891,358.574 76.114,358.471 76.114,358.372 C 76.114,358.287 76.27,358.362 76.276,358.259 C 76.308,358.249 76.342,358.249 76.397,358.237 C 76.426,358.3 76.463,358.289 76.463,358.372 C 76.463,358.401 76.405,358.541 76.405,358.57 C 76.405,358.739 76.681,358.614 76.72,358.733 C 76.698,358.774 76.615,358.915 76.615,358.955 C 76.615,359.032 76.648,359.112 76.725,359.112 C 76.896,359.112 76.801,358.809 77.075,358.809 C 77.254,358.809 77.267,358.962 77.267,359.071 C 77.267,359.1 77.244,359.147 77.244,359.176 C 77.244,359.225 77.267,359.264 77.318,359.333 C 77.391,359.31 77.5,359.24 77.529,359.24 C 77.559,359.24 77.582,359.263 77.582,359.292 C 77.582,359.322 77.594,359.368 77.594,359.397 C 77.594,359.453 77.757,359.506 77.789,359.519 C 77.792,359.49 77.803,359.461 77.803,359.432 C 77.803,359.403 77.85,359.356 77.85,359.327 C 77.85,359.298 77.826,359.275 77.826,359.246 C 77.826,359.217 77.838,359.24 77.838,359.211 C 77.838,359.182 77.92,359.158 77.949,359.158 C 78.068,359.158 78.095,359.318 78.146,359.368 C 78.312,359.259 78.403,359.123 78.415,359.123 C 78.51,359.123 78.689,359.206 78.689,359.292 C 78.689,359.322 78.645,359.334 78.619,359.348 C 78.66,359.485 78.7,359.463 78.7,359.572 C 78.7,359.601 78.744,359.619 78.755,359.655 C 78.775,359.727 78.782,359.869 78.782,359.98 C 78.782,360.009 78.776,360.066 78.849,360.078"
           id="path3447"
           style="fill:#f78d10;fill-opacity:1;fill-rule:evenodd;stroke:none" />
        <path
           d="M 79.043,360.079 C 79.081,360.067 79.097,360.067 79.097,360.038 C 79.097,360.009 79.073,360.032 79.073,360.003 C 79.073,359.974 79.097,359.986 79.097,359.956 C 79.097,359.911 79.027,359.815 79.027,359.77 C 79.027,359.741 78.974,359.718 78.947,359.719 C 78.945,359.758 78.933,359.799 78.933,359.828 C 78.933,359.857 78.977,359.875 79,359.913 C 79.033,359.965 78.979,360.023 79.043,360.079"
           id="path3449"
           style="fill:#f78d10;fill-opacity:1;fill-rule:evenodd;stroke:none" />
      </g>
    </g>
    <path
       d="M 63.829998,2.23625 L 63.881248,2.23625 C 63.881248,2.23625 63.898748,2.23625 63.898748,2.2725 C 63.898748,2.30875 63.751248,2.43625 63.707498,2.51 C 63.677498,2.53875 63.633748,2.55375 63.601248,2.585 L 63.519998,2.565 C 63.608748,2.47125 63.739998,2.355 63.829998,2.23625"
       id="path3451"
       style="fill:#f78d10;fill-opacity:1;fill-rule:evenodd;stroke:none" />
    <path
       d="M 57.649998,8.7025 C 57.732498,8.7025 57.772498,8.8175 57.848748,8.86625 C 57.942498,8.8525 58.118748,8.86125 58.211248,8.93125 C 58.329998,9.11125 58.538748,9.18625 58.538748,9.39375 C 58.538748,9.43 58.597498,9.5025 58.597498,9.53875 C 58.597498,9.57625 58.553748,9.62 58.553748,9.65625 C 58.553748,9.6925 58.597498,9.8 58.614998,9.8675 C 58.627498,9.96625 58.519998,10.09375 58.538748,10.21125 L 58.509998,10.23875 L 58.538748,10.2675 C 58.507498,10.3025 58.494998,10.3425 58.477498,10.385 C 58.254998,10.40625 58.214998,10.66875 58.152498,10.66875 C 58.116248,10.66875 58.062498,10.62375 58.023748,10.61 C 57.961248,10.67375 58.011248,10.755 57.904998,10.755 C 57.868748,10.755 57.781248,10.66875 57.744998,10.66875 C 57.644998,10.66875 57.414998,10.755 57.381248,10.755 C 57.344998,10.755 57.136248,10.52 57.044998,10.45875 C 56.996248,10.47 56.966248,10.43375 56.903748,10.40375 C 56.887498,10.32875 56.747498,10.13625 56.747498,10.005 C 56.747498,9.96875 56.732498,9.94 56.732498,9.90375 C 56.732498,9.8675 56.676248,9.82 56.631248,9.74125 C 56.677498,9.7075 56.762498,9.66375 56.762498,9.62625 C 56.762498,9.59 56.732498,9.605 56.732498,9.56875 C 56.732498,9.5325 56.762498,9.54625 56.762498,9.51 C 56.762498,9.47375 56.718748,9.43 56.718748,9.39375 C 56.718748,9.34125 56.863748,9.30875 56.864998,9.09875 C 57.028748,9.0225 57.134998,8.99625 57.242498,8.87 L 57.213748,8.84 C 57.244998,8.80625 57.271248,8.775 57.308748,8.775 C 57.344998,8.775 57.432498,8.8475 57.468748,8.8475 C 57.504998,8.8475 57.613748,8.7025 57.649998,8.7025"
       id="path3453"
       style="fill:#f78d10;fill-opacity:1;fill-rule:evenodd;stroke:none" />
    <path
       d="M 59.827498,11.73125 C 59.894998,11.795 60.316248,11.89125 60.316248,12.13125 C 60.316248,12.16875 60.286248,12.16875 60.286248,12.205 C 60.286248,12.24125 60.329998,12.29875 60.329998,12.335 C 60.329998,12.3725 60.271248,12.4975 60.254998,12.57375 C 60.184998,12.585 60.123748,12.675 60.108748,12.70625 C 60.069998,12.7075 60.034998,12.67375 60.007498,12.73375 C 59.907498,12.76 59.926248,12.7075 59.886248,12.7075 C 59.849998,12.7075 59.762498,12.75125 59.726248,12.75125 C 59.528748,12.75125 59.331248,12.27625 59.324998,12.2625 C 59.407498,12.155 59.418748,12.02375 59.462498,11.92625 C 59.543748,11.88375 59.578748,11.8625 59.634998,11.77625 C 59.667498,11.775 59.714998,11.805 59.738748,11.81875"
       id="path3455"
       style="fill:#f78d10;fill-opacity:1;fill-rule:evenodd;stroke:none" />
  </g>
</svg>
